<mxfile host="app.diagrams.net" agent="Mozilla/5.0 (Windows NT 10.0; Win64; x64) AppleWebKit/537.36 (KHTML, like Gecko) Chrome/131.0.0.0 Safari/537.36 Edg/131.0.0.0" version="25.0.1">
  <diagram name="1 oldal" id="Awr-DM64UnO1mgz5BWSa">
    <mxGraphModel dx="4986" dy="2663" grid="1" gridSize="10" guides="1" tooltips="1" connect="1" arrows="1" fold="1" page="1" pageScale="1" pageWidth="827" pageHeight="1169" math="0" shadow="0">
      <root>
        <mxCell id="0" />
        <mxCell id="1" parent="0" />
        <mxCell id="Ih1S8qMaLeZmfwq9otU4-2" value="nev" style="ellipse;whiteSpace=wrap;html=1;align=center;" parent="1" vertex="1">
          <mxGeometry x="-80" y="-350" width="100" height="40" as="geometry" />
        </mxCell>
        <mxCell id="Ih1S8qMaLeZmfwq9otU4-3" value="neme" style="ellipse;shape=doubleEllipse;margin=3;whiteSpace=wrap;html=1;align=center;" parent="1" vertex="1">
          <mxGeometry x="40" y="-350" width="100" height="40" as="geometry" />
        </mxCell>
        <mxCell id="Ih1S8qMaLeZmfwq9otU4-5" value="email" style="ellipse;whiteSpace=wrap;html=1;align=center;" parent="1" vertex="1">
          <mxGeometry x="160" y="-350" width="100" height="40" as="geometry" />
        </mxCell>
        <mxCell id="Ih1S8qMaLeZmfwq9otU4-6" value="jelszo" style="ellipse;whiteSpace=wrap;html=1;align=center;" parent="1" vertex="1">
          <mxGeometry x="280" y="-350" width="100" height="40" as="geometry" />
        </mxCell>
        <mxCell id="Ih1S8qMaLeZmfwq9otU4-9" value="ar_berles" style="ellipse;whiteSpace=wrap;html=1;align=center;" parent="1" vertex="1">
          <mxGeometry x="1965" y="-240" width="70" height="40" as="geometry" />
        </mxCell>
        <mxCell id="Ih1S8qMaLeZmfwq9otU4-10" value="ar_vetel" style="ellipse;whiteSpace=wrap;html=1;align=center;" parent="1" vertex="1">
          <mxGeometry x="2082" y="-240" width="72" height="40" as="geometry" />
        </mxCell>
        <mxCell id="Ih1S8qMaLeZmfwq9otU4-11" value="cim" style="ellipse;whiteSpace=wrap;html=1;align=center;" parent="1" vertex="1">
          <mxGeometry x="2290" y="-350" width="100" height="40" as="geometry" />
        </mxCell>
        <mxCell id="Ih1S8qMaLeZmfwq9otU4-15" value="esemeny_nev" style="ellipse;shape=doubleEllipse;margin=3;whiteSpace=wrap;html=1;align=center;" parent="1" vertex="1">
          <mxGeometry x="680" y="-350" width="100" height="40" as="geometry" />
        </mxCell>
        <mxCell id="Ih1S8qMaLeZmfwq9otU4-16" value="datum" style="ellipse;whiteSpace=wrap;html=1;align=center;" parent="1" vertex="1">
          <mxGeometry x="790" y="-350" width="100" height="40" as="geometry" />
        </mxCell>
        <mxCell id="Ih1S8qMaLeZmfwq9otU4-17" value="helyszin" style="ellipse;whiteSpace=wrap;html=1;align=center;" parent="1" vertex="1">
          <mxGeometry x="570" y="-350" width="100" height="40" as="geometry" />
        </mxCell>
        <mxCell id="Ih1S8qMaLeZmfwq9otU4-18" value="leiras" style="ellipse;whiteSpace=wrap;html=1;align=center;" parent="1" vertex="1">
          <mxGeometry x="900" y="-350" width="100" height="40" as="geometry" />
        </mxCell>
        <mxCell id="qEqo5hfFAQOy0AiOIkTx-65" style="edgeStyle=orthogonalEdgeStyle;rounded=0;orthogonalLoop=1;jettySize=auto;html=1;exitX=0;exitY=1;exitDx=0;exitDy=0;entryX=0.5;entryY=0;entryDx=0;entryDy=0;" parent="1" source="Ih1S8qMaLeZmfwq9otU4-19" target="Ih1S8qMaLeZmfwq9otU4-9" edge="1">
          <mxGeometry relative="1" as="geometry" />
        </mxCell>
        <mxCell id="qEqo5hfFAQOy0AiOIkTx-66" style="edgeStyle=orthogonalEdgeStyle;rounded=0;orthogonalLoop=1;jettySize=auto;html=1;exitX=1;exitY=1;exitDx=0;exitDy=0;entryX=0.5;entryY=0;entryDx=0;entryDy=0;" parent="1" source="Ih1S8qMaLeZmfwq9otU4-19" target="Ih1S8qMaLeZmfwq9otU4-10" edge="1">
          <mxGeometry relative="1" as="geometry" />
        </mxCell>
        <mxCell id="Ih1S8qMaLeZmfwq9otU4-19" value="(Ã¡rak)" style="ellipse;whiteSpace=wrap;html=1;align=center;" parent="1" vertex="1">
          <mxGeometry x="2010" y="-350" width="100" height="40" as="geometry" />
        </mxCell>
        <mxCell id="Ih1S8qMaLeZmfwq9otU4-24" value="tipus" style="ellipse;shape=doubleEllipse;margin=3;whiteSpace=wrap;html=1;align=center;" parent="1" vertex="1">
          <mxGeometry x="1470" y="-350" width="100" height="40" as="geometry" />
        </mxCell>
        <mxCell id="Ih1S8qMaLeZmfwq9otU4-25" value="kezdes_datum" style="ellipse;whiteSpace=wrap;html=1;align=center;" parent="1" vertex="1">
          <mxGeometry x="1580" y="-350" width="100" height="40" as="geometry" />
        </mxCell>
        <mxCell id="Ih1S8qMaLeZmfwq9otU4-26" value="ar" style="ellipse;whiteSpace=wrap;html=1;align=center;" parent="1" vertex="1">
          <mxGeometry x="1690" y="-350" width="100" height="40" as="geometry" />
        </mxCell>
        <mxCell id="Ih1S8qMaLeZmfwq9otU4-27" value="kedvezmeny_szazalek" style="ellipse;whiteSpace=wrap;html=1;align=center;" parent="1" vertex="1">
          <mxGeometry x="-700" y="-350" width="150" height="40" as="geometry" />
        </mxCell>
        <mxCell id="Ih1S8qMaLeZmfwq9otU4-28" value="ervenyesseg_vege" style="ellipse;whiteSpace=wrap;html=1;align=center;" parent="1" vertex="1">
          <mxGeometry x="-520" y="-350" width="130" height="40" as="geometry" />
        </mxCell>
        <mxCell id="Ih1S8qMaLeZmfwq9otU4-29" style="edgeStyle=orthogonalEdgeStyle;rounded=0;orthogonalLoop=1;jettySize=auto;html=1;exitX=0;exitY=0.5;exitDx=0;exitDy=0;entryX=0.5;entryY=0;entryDx=0;entryDy=0;" parent="1" source="Ih1S8qMaLeZmfwq9otU4-33" target="Ih1S8qMaLeZmfwq9otU4-37" edge="1">
          <mxGeometry relative="1" as="geometry">
            <mxPoint x="-773.5000000000002" y="-350" as="targetPoint" />
          </mxGeometry>
        </mxCell>
        <mxCell id="Ih1S8qMaLeZmfwq9otU4-30" style="edgeStyle=orthogonalEdgeStyle;rounded=0;orthogonalLoop=1;jettySize=auto;html=1;exitX=0;exitY=1;exitDx=0;exitDy=0;" parent="1" source="Ih1S8qMaLeZmfwq9otU4-33" target="Ih1S8qMaLeZmfwq9otU4-27" edge="1">
          <mxGeometry relative="1" as="geometry" />
        </mxCell>
        <mxCell id="Ih1S8qMaLeZmfwq9otU4-31" style="edgeStyle=orthogonalEdgeStyle;rounded=0;orthogonalLoop=1;jettySize=auto;html=1;exitX=1;exitY=1;exitDx=0;exitDy=0;" parent="1" source="Ih1S8qMaLeZmfwq9otU4-33" target="Ih1S8qMaLeZmfwq9otU4-28" edge="1">
          <mxGeometry relative="1" as="geometry" />
        </mxCell>
        <mxCell id="Ih1S8qMaLeZmfwq9otU4-32" style="edgeStyle=orthogonalEdgeStyle;rounded=0;orthogonalLoop=1;jettySize=auto;html=1;exitX=1;exitY=0.5;exitDx=0;exitDy=0;entryX=0.5;entryY=0;entryDx=0;entryDy=0;" parent="1" source="Ih1S8qMaLeZmfwq9otU4-33" target="Ih1S8qMaLeZmfwq9otU4-34" edge="1">
          <mxGeometry relative="1" as="geometry" />
        </mxCell>
        <mxCell id="Ih1S8qMaLeZmfwq9otU4-33" value="Kedvezmenyek" style="ellipse;shape=doubleEllipse;margin=3;whiteSpace=wrap;html=1;align=center;" parent="1" vertex="1">
          <mxGeometry x="-590" y="-450" width="100" height="40" as="geometry" />
        </mxCell>
        <mxCell id="Ih1S8qMaLeZmfwq9otU4-34" value="felhasznalo_id" style="rhombus;whiteSpace=wrap;html=1;" parent="1" vertex="1">
          <mxGeometry x="-370" y="-370" width="120" height="80" as="geometry" />
        </mxCell>
        <mxCell id="Ih1S8qMaLeZmfwq9otU4-35" value="" style="endArrow=none;dashed=1;html=1;rounded=0;" parent="1" edge="1">
          <mxGeometry width="50" height="50" relative="1" as="geometry">
            <mxPoint x="-270" y="-320" as="sourcePoint" />
            <mxPoint x="-350" y="-320" as="targetPoint" />
          </mxGeometry>
        </mxCell>
        <mxCell id="Ih1S8qMaLeZmfwq9otU4-36" value="" style="rounded=0;whiteSpace=wrap;html=1;" parent="1" vertex="1">
          <mxGeometry x="-645" y="-260" width="40" height="80" as="geometry" />
        </mxCell>
        <mxCell id="Ih1S8qMaLeZmfwq9otU4-37" value="kedvezmenyek_id" style="rhombus;whiteSpace=wrap;html=1;" parent="1" vertex="1">
          <mxGeometry x="-830" y="-380" width="113.5" height="100" as="geometry" />
        </mxCell>
        <mxCell id="Ih1S8qMaLeZmfwq9otU4-38" value="" style="endArrow=none;html=1;rounded=0;entryX=0.793;entryY=0.6;entryDx=0;entryDy=0;entryPerimeter=0;" parent="1" target="Ih1S8qMaLeZmfwq9otU4-37" edge="1">
          <mxGeometry width="50" height="50" relative="1" as="geometry">
            <mxPoint x="-810" y="-320" as="sourcePoint" />
            <mxPoint x="-680" y="-340" as="targetPoint" />
          </mxGeometry>
        </mxCell>
        <mxCell id="Ih1S8qMaLeZmfwq9otU4-39" value="" style="endArrow=none;html=1;rounded=0;exitX=0.5;exitY=0;exitDx=0;exitDy=0;entryX=0.5;entryY=1;entryDx=0;entryDy=0;" parent="1" source="Ih1S8qMaLeZmfwq9otU4-36" target="Ih1S8qMaLeZmfwq9otU4-27" edge="1">
          <mxGeometry width="50" height="50" relative="1" as="geometry">
            <mxPoint x="-550" y="-330" as="sourcePoint" />
            <mxPoint x="-500" y="-380" as="targetPoint" />
          </mxGeometry>
        </mxCell>
        <mxCell id="Ih1S8qMaLeZmfwq9otU4-40" value="" style="rounded=0;whiteSpace=wrap;html=1;" parent="1" vertex="1">
          <mxGeometry x="-475" y="-260" width="40" height="80" as="geometry" />
        </mxCell>
        <mxCell id="Ih1S8qMaLeZmfwq9otU4-41" value="" style="endArrow=none;html=1;rounded=0;exitX=0.5;exitY=0;exitDx=0;exitDy=0;entryX=0.5;entryY=1;entryDx=0;entryDy=0;" parent="1" source="Ih1S8qMaLeZmfwq9otU4-40" edge="1">
          <mxGeometry width="50" height="50" relative="1" as="geometry">
            <mxPoint x="-380" y="-330" as="sourcePoint" />
            <mxPoint x="-455" y="-310" as="targetPoint" />
          </mxGeometry>
        </mxCell>
        <mxCell id="qEqo5hfFAQOy0AiOIkTx-21" style="edgeStyle=orthogonalEdgeStyle;rounded=0;orthogonalLoop=1;jettySize=auto;html=1;exitX=0;exitY=0.5;exitDx=0;exitDy=0;" parent="1" source="qEqo5hfFAQOy0AiOIkTx-1" target="qEqo5hfFAQOy0AiOIkTx-2" edge="1">
          <mxGeometry relative="1" as="geometry" />
        </mxCell>
        <mxCell id="qEqo5hfFAQOy0AiOIkTx-22" style="edgeStyle=orthogonalEdgeStyle;rounded=0;orthogonalLoop=1;jettySize=auto;html=1;exitX=0;exitY=1;exitDx=0;exitDy=0;" parent="1" source="qEqo5hfFAQOy0AiOIkTx-1" target="Ih1S8qMaLeZmfwq9otU4-2" edge="1">
          <mxGeometry relative="1" as="geometry" />
        </mxCell>
        <mxCell id="qEqo5hfFAQOy0AiOIkTx-23" style="edgeStyle=orthogonalEdgeStyle;rounded=0;orthogonalLoop=1;jettySize=auto;html=1;exitX=0.5;exitY=1;exitDx=0;exitDy=0;entryX=0.5;entryY=0;entryDx=0;entryDy=0;" parent="1" source="qEqo5hfFAQOy0AiOIkTx-1" target="Ih1S8qMaLeZmfwq9otU4-3" edge="1">
          <mxGeometry relative="1" as="geometry" />
        </mxCell>
        <mxCell id="qEqo5hfFAQOy0AiOIkTx-24" style="edgeStyle=orthogonalEdgeStyle;rounded=0;orthogonalLoop=1;jettySize=auto;html=1;exitX=1;exitY=1;exitDx=0;exitDy=0;entryX=0.5;entryY=0;entryDx=0;entryDy=0;" parent="1" source="qEqo5hfFAQOy0AiOIkTx-1" target="Ih1S8qMaLeZmfwq9otU4-5" edge="1">
          <mxGeometry relative="1" as="geometry" />
        </mxCell>
        <mxCell id="qEqo5hfFAQOy0AiOIkTx-25" style="edgeStyle=orthogonalEdgeStyle;rounded=0;orthogonalLoop=1;jettySize=auto;html=1;exitX=1;exitY=0.5;exitDx=0;exitDy=0;entryX=0.5;entryY=0;entryDx=0;entryDy=0;" parent="1" source="qEqo5hfFAQOy0AiOIkTx-1" target="Ih1S8qMaLeZmfwq9otU4-6" edge="1">
          <mxGeometry relative="1" as="geometry" />
        </mxCell>
        <mxCell id="qEqo5hfFAQOy0AiOIkTx-1" value="Felhasznalok" style="ellipse;shape=doubleEllipse;margin=3;whiteSpace=wrap;html=1;align=center;" parent="1" vertex="1">
          <mxGeometry x="40" y="-450" width="100" height="40" as="geometry" />
        </mxCell>
        <mxCell id="qEqo5hfFAQOy0AiOIkTx-2" value="id" style="shape=rhombus;perimeter=rhombusPerimeter;whiteSpace=wrap;html=1;align=center;" parent="1" vertex="1">
          <mxGeometry x="-170" y="-360" width="70" height="60" as="geometry" />
        </mxCell>
        <mxCell id="qEqo5hfFAQOy0AiOIkTx-3" value="" style="line;strokeWidth=1;rotatable=0;dashed=0;labelPosition=right;align=left;verticalAlign=middle;spacingTop=0;spacingLeft=6;points=[];portConstraint=eastwest;" parent="1" vertex="1">
          <mxGeometry x="-140" y="-325" width="10" height="10" as="geometry" />
        </mxCell>
        <mxCell id="qEqo5hfFAQOy0AiOIkTx-4" value="" style="rounded=0;whiteSpace=wrap;html=1;" parent="1" vertex="1">
          <mxGeometry x="-50" y="-260" width="40" height="80" as="geometry" />
        </mxCell>
        <mxCell id="qEqo5hfFAQOy0AiOIkTx-5" value="" style="endArrow=none;html=1;rounded=0;exitX=0.5;exitY=0;exitDx=0;exitDy=0;entryX=0.5;entryY=1;entryDx=0;entryDy=0;" parent="1" source="qEqo5hfFAQOy0AiOIkTx-4" edge="1">
          <mxGeometry width="50" height="50" relative="1" as="geometry">
            <mxPoint x="45" y="-330" as="sourcePoint" />
            <mxPoint x="-30" y="-310" as="targetPoint" />
          </mxGeometry>
        </mxCell>
        <mxCell id="qEqo5hfFAQOy0AiOIkTx-6" value="" style="rounded=0;whiteSpace=wrap;html=1;" parent="1" vertex="1">
          <mxGeometry x="70" y="-260" width="40" height="80" as="geometry" />
        </mxCell>
        <mxCell id="qEqo5hfFAQOy0AiOIkTx-7" value="" style="endArrow=none;html=1;rounded=0;exitX=0.5;exitY=0;exitDx=0;exitDy=0;entryX=0.5;entryY=1;entryDx=0;entryDy=0;" parent="1" source="qEqo5hfFAQOy0AiOIkTx-6" edge="1">
          <mxGeometry width="50" height="50" relative="1" as="geometry">
            <mxPoint x="165" y="-330" as="sourcePoint" />
            <mxPoint x="90" y="-310" as="targetPoint" />
          </mxGeometry>
        </mxCell>
        <mxCell id="qEqo5hfFAQOy0AiOIkTx-8" value="" style="rounded=0;whiteSpace=wrap;html=1;" parent="1" vertex="1">
          <mxGeometry x="190" y="-260" width="40" height="80" as="geometry" />
        </mxCell>
        <mxCell id="qEqo5hfFAQOy0AiOIkTx-9" value="" style="endArrow=none;html=1;rounded=0;exitX=0.5;exitY=0;exitDx=0;exitDy=0;entryX=0.5;entryY=1;entryDx=0;entryDy=0;" parent="1" source="qEqo5hfFAQOy0AiOIkTx-8" edge="1">
          <mxGeometry width="50" height="50" relative="1" as="geometry">
            <mxPoint x="285" y="-330" as="sourcePoint" />
            <mxPoint x="210" y="-310" as="targetPoint" />
          </mxGeometry>
        </mxCell>
        <mxCell id="qEqo5hfFAQOy0AiOIkTx-10" value="" style="rounded=0;whiteSpace=wrap;html=1;" parent="1" vertex="1">
          <mxGeometry x="310" y="-260" width="40" height="80" as="geometry" />
        </mxCell>
        <mxCell id="qEqo5hfFAQOy0AiOIkTx-11" value="" style="endArrow=none;html=1;rounded=0;exitX=0.5;exitY=0;exitDx=0;exitDy=0;entryX=0.5;entryY=1;entryDx=0;entryDy=0;" parent="1" source="qEqo5hfFAQOy0AiOIkTx-10" edge="1">
          <mxGeometry width="50" height="50" relative="1" as="geometry">
            <mxPoint x="405" y="-330" as="sourcePoint" />
            <mxPoint x="330" y="-310" as="targetPoint" />
          </mxGeometry>
        </mxCell>
        <mxCell id="qEqo5hfFAQOy0AiOIkTx-19" value="" style="endArrow=block;dashed=1;endFill=0;endSize=12;html=1;rounded=0;exitX=0.5;exitY=1;exitDx=0;exitDy=0;entryX=0.326;entryY=0.813;entryDx=0;entryDy=0;entryPerimeter=0;" parent="1" source="Ih1S8qMaLeZmfwq9otU4-34" target="qEqo5hfFAQOy0AiOIkTx-2" edge="1">
          <mxGeometry width="160" relative="1" as="geometry">
            <mxPoint x="-320" y="-303.6" as="sourcePoint" />
            <mxPoint x="-145.63000000000056" y="-310.0000000000001" as="targetPoint" />
            <Array as="points">
              <mxPoint x="-310" y="-194" />
              <mxPoint x="-146" y="-193.6" />
            </Array>
          </mxGeometry>
        </mxCell>
        <mxCell id="qEqo5hfFAQOy0AiOIkTx-38" style="edgeStyle=orthogonalEdgeStyle;rounded=0;orthogonalLoop=1;jettySize=auto;html=1;exitX=0;exitY=0.5;exitDx=0;exitDy=0;entryX=0.5;entryY=0;entryDx=0;entryDy=0;" parent="1" source="qEqo5hfFAQOy0AiOIkTx-26" target="qEqo5hfFAQOy0AiOIkTx-27" edge="1">
          <mxGeometry relative="1" as="geometry" />
        </mxCell>
        <mxCell id="qEqo5hfFAQOy0AiOIkTx-39" style="edgeStyle=orthogonalEdgeStyle;rounded=0;orthogonalLoop=1;jettySize=auto;html=1;exitX=0;exitY=1;exitDx=0;exitDy=0;entryX=0.5;entryY=0;entryDx=0;entryDy=0;" parent="1" source="qEqo5hfFAQOy0AiOIkTx-26" target="Ih1S8qMaLeZmfwq9otU4-17" edge="1">
          <mxGeometry relative="1" as="geometry" />
        </mxCell>
        <mxCell id="qEqo5hfFAQOy0AiOIkTx-40" style="edgeStyle=orthogonalEdgeStyle;rounded=0;orthogonalLoop=1;jettySize=auto;html=1;exitX=0.5;exitY=1;exitDx=0;exitDy=0;entryX=0.5;entryY=0;entryDx=0;entryDy=0;" parent="1" source="qEqo5hfFAQOy0AiOIkTx-26" target="Ih1S8qMaLeZmfwq9otU4-15" edge="1">
          <mxGeometry relative="1" as="geometry" />
        </mxCell>
        <mxCell id="qEqo5hfFAQOy0AiOIkTx-41" style="edgeStyle=orthogonalEdgeStyle;rounded=0;orthogonalLoop=1;jettySize=auto;html=1;exitX=1;exitY=1;exitDx=0;exitDy=0;" parent="1" source="qEqo5hfFAQOy0AiOIkTx-26" target="Ih1S8qMaLeZmfwq9otU4-16" edge="1">
          <mxGeometry relative="1" as="geometry" />
        </mxCell>
        <mxCell id="qEqo5hfFAQOy0AiOIkTx-42" style="edgeStyle=orthogonalEdgeStyle;rounded=0;orthogonalLoop=1;jettySize=auto;html=1;exitX=1;exitY=0.5;exitDx=0;exitDy=0;entryX=0.5;entryY=0;entryDx=0;entryDy=0;" parent="1" source="qEqo5hfFAQOy0AiOIkTx-26" target="Ih1S8qMaLeZmfwq9otU4-18" edge="1">
          <mxGeometry relative="1" as="geometry" />
        </mxCell>
        <mxCell id="qEqo5hfFAQOy0AiOIkTx-26" value="Esemenyek" style="ellipse;shape=doubleEllipse;margin=3;whiteSpace=wrap;html=1;align=center;" parent="1" vertex="1">
          <mxGeometry x="680" y="-450" width="100" height="40" as="geometry" />
        </mxCell>
        <mxCell id="qEqo5hfFAQOy0AiOIkTx-27" value="esemenyek_id" style="shape=rhombus;perimeter=rhombusPerimeter;whiteSpace=wrap;html=1;align=center;" parent="1" vertex="1">
          <mxGeometry x="440" y="-370" width="120" height="80" as="geometry" />
        </mxCell>
        <mxCell id="qEqo5hfFAQOy0AiOIkTx-29" value="" style="line;strokeWidth=1;rotatable=0;dashed=0;labelPosition=right;align=left;verticalAlign=middle;spacingTop=0;spacingLeft=6;points=[];portConstraint=eastwest;" parent="1" vertex="1">
          <mxGeometry x="460" y="-330" width="80" height="10" as="geometry" />
        </mxCell>
        <mxCell id="qEqo5hfFAQOy0AiOIkTx-30" value="" style="rounded=0;whiteSpace=wrap;html=1;" parent="1" vertex="1">
          <mxGeometry x="600" y="-260" width="40" height="80" as="geometry" />
        </mxCell>
        <mxCell id="qEqo5hfFAQOy0AiOIkTx-31" value="" style="endArrow=none;html=1;rounded=0;exitX=0.5;exitY=0;exitDx=0;exitDy=0;entryX=0.5;entryY=1;entryDx=0;entryDy=0;" parent="1" source="qEqo5hfFAQOy0AiOIkTx-30" edge="1">
          <mxGeometry width="50" height="50" relative="1" as="geometry">
            <mxPoint x="695" y="-330" as="sourcePoint" />
            <mxPoint x="620" y="-310" as="targetPoint" />
          </mxGeometry>
        </mxCell>
        <mxCell id="qEqo5hfFAQOy0AiOIkTx-32" value="" style="rounded=0;whiteSpace=wrap;html=1;" parent="1" vertex="1">
          <mxGeometry x="710" y="-260" width="40" height="80" as="geometry" />
        </mxCell>
        <mxCell id="qEqo5hfFAQOy0AiOIkTx-33" value="" style="endArrow=none;html=1;rounded=0;exitX=0.5;exitY=0;exitDx=0;exitDy=0;entryX=0.5;entryY=1;entryDx=0;entryDy=0;" parent="1" source="qEqo5hfFAQOy0AiOIkTx-32" target="Ih1S8qMaLeZmfwq9otU4-15" edge="1">
          <mxGeometry width="50" height="50" relative="1" as="geometry">
            <mxPoint x="815" y="-330" as="sourcePoint" />
            <mxPoint x="740" y="-310" as="targetPoint" />
          </mxGeometry>
        </mxCell>
        <mxCell id="qEqo5hfFAQOy0AiOIkTx-34" value="" style="rounded=0;whiteSpace=wrap;html=1;" parent="1" vertex="1">
          <mxGeometry x="820" y="-260" width="40" height="80" as="geometry" />
        </mxCell>
        <mxCell id="qEqo5hfFAQOy0AiOIkTx-35" value="" style="endArrow=none;html=1;rounded=0;exitX=0.5;exitY=0;exitDx=0;exitDy=0;entryX=0.5;entryY=1;entryDx=0;entryDy=0;" parent="1" source="qEqo5hfFAQOy0AiOIkTx-34" target="Ih1S8qMaLeZmfwq9otU4-16" edge="1">
          <mxGeometry width="50" height="50" relative="1" as="geometry">
            <mxPoint x="935" y="-330" as="sourcePoint" />
            <mxPoint x="860" y="-310" as="targetPoint" />
          </mxGeometry>
        </mxCell>
        <mxCell id="qEqo5hfFAQOy0AiOIkTx-36" value="" style="rounded=0;whiteSpace=wrap;html=1;" parent="1" vertex="1">
          <mxGeometry x="930" y="-260" width="40" height="80" as="geometry" />
        </mxCell>
        <mxCell id="qEqo5hfFAQOy0AiOIkTx-37" value="" style="endArrow=none;html=1;rounded=0;exitX=0.5;exitY=0;exitDx=0;exitDy=0;entryX=0.5;entryY=1;entryDx=0;entryDy=0;" parent="1" source="qEqo5hfFAQOy0AiOIkTx-36" target="Ih1S8qMaLeZmfwq9otU4-18" edge="1">
          <mxGeometry width="50" height="50" relative="1" as="geometry">
            <mxPoint x="1055" y="-330" as="sourcePoint" />
            <mxPoint x="980" y="-310" as="targetPoint" />
          </mxGeometry>
        </mxCell>
        <mxCell id="qEqo5hfFAQOy0AiOIkTx-57" style="edgeStyle=orthogonalEdgeStyle;rounded=0;orthogonalLoop=1;jettySize=auto;html=1;exitX=0;exitY=0.5;exitDx=0;exitDy=0;entryX=0.5;entryY=0;entryDx=0;entryDy=0;" parent="1" source="qEqo5hfFAQOy0AiOIkTx-43" target="qEqo5hfFAQOy0AiOIkTx-44" edge="1">
          <mxGeometry relative="1" as="geometry" />
        </mxCell>
        <mxCell id="qEqo5hfFAQOy0AiOIkTx-58" style="edgeStyle=orthogonalEdgeStyle;rounded=0;orthogonalLoop=1;jettySize=auto;html=1;exitX=0;exitY=0.5;exitDx=0;exitDy=0;entryX=0.5;entryY=0;entryDx=0;entryDy=0;" parent="1" source="qEqo5hfFAQOy0AiOIkTx-43" target="qEqo5hfFAQOy0AiOIkTx-46" edge="1">
          <mxGeometry relative="1" as="geometry" />
        </mxCell>
        <mxCell id="qEqo5hfFAQOy0AiOIkTx-59" style="edgeStyle=orthogonalEdgeStyle;rounded=0;orthogonalLoop=1;jettySize=auto;html=1;exitX=0;exitY=1;exitDx=0;exitDy=0;entryX=0.5;entryY=0;entryDx=0;entryDy=0;" parent="1" source="qEqo5hfFAQOy0AiOIkTx-43" target="qEqo5hfFAQOy0AiOIkTx-48" edge="1">
          <mxGeometry relative="1" as="geometry">
            <Array as="points">
              <mxPoint x="1400" y="-416" />
            </Array>
          </mxGeometry>
        </mxCell>
        <mxCell id="qEqo5hfFAQOy0AiOIkTx-60" style="edgeStyle=orthogonalEdgeStyle;rounded=0;orthogonalLoop=1;jettySize=auto;html=1;exitX=1;exitY=1;exitDx=0;exitDy=0;" parent="1" source="qEqo5hfFAQOy0AiOIkTx-43" target="Ih1S8qMaLeZmfwq9otU4-24" edge="1">
          <mxGeometry relative="1" as="geometry">
            <Array as="points">
              <mxPoint x="1520" y="-416" />
            </Array>
          </mxGeometry>
        </mxCell>
        <mxCell id="qEqo5hfFAQOy0AiOIkTx-61" style="edgeStyle=orthogonalEdgeStyle;rounded=0;orthogonalLoop=1;jettySize=auto;html=1;exitX=1;exitY=1;exitDx=0;exitDy=0;entryX=0.5;entryY=0;entryDx=0;entryDy=0;" parent="1" source="qEqo5hfFAQOy0AiOIkTx-43" target="Ih1S8qMaLeZmfwq9otU4-25" edge="1">
          <mxGeometry relative="1" as="geometry">
            <Array as="points">
              <mxPoint x="1495" y="-430" />
              <mxPoint x="1630" y="-430" />
            </Array>
          </mxGeometry>
        </mxCell>
        <mxCell id="qEqo5hfFAQOy0AiOIkTx-62" style="edgeStyle=orthogonalEdgeStyle;rounded=0;orthogonalLoop=1;jettySize=auto;html=1;exitX=1;exitY=0.5;exitDx=0;exitDy=0;entryX=0.5;entryY=0;entryDx=0;entryDy=0;" parent="1" source="qEqo5hfFAQOy0AiOIkTx-43" target="Ih1S8qMaLeZmfwq9otU4-26" edge="1">
          <mxGeometry relative="1" as="geometry" />
        </mxCell>
        <mxCell id="qEqo5hfFAQOy0AiOIkTx-43" value="Berles_Vasarlas" style="ellipse;shape=doubleEllipse;margin=3;whiteSpace=wrap;html=1;align=center;" parent="1" vertex="1">
          <mxGeometry x="1410" y="-450" width="100" height="40" as="geometry" />
        </mxCell>
        <mxCell id="qEqo5hfFAQOy0AiOIkTx-44" value="tranzakcio_id" style="shape=rhombus;perimeter=rhombusPerimeter;whiteSpace=wrap;html=1;align=center;" parent="1" vertex="1">
          <mxGeometry x="1080" y="-370" width="120" height="80" as="geometry" />
        </mxCell>
        <mxCell id="qEqo5hfFAQOy0AiOIkTx-45" value="" style="line;strokeWidth=1;rotatable=0;dashed=0;labelPosition=right;align=left;verticalAlign=middle;spacingTop=0;spacingLeft=6;points=[];portConstraint=eastwest;" parent="1" vertex="1">
          <mxGeometry x="1100" y="-330" width="80" height="10" as="geometry" />
        </mxCell>
        <mxCell id="qEqo5hfFAQOy0AiOIkTx-46" value="felhasznalo_id" style="rhombus;whiteSpace=wrap;html=1;" parent="1" vertex="1">
          <mxGeometry x="1210" y="-370" width="120" height="80" as="geometry" />
        </mxCell>
        <mxCell id="qEqo5hfFAQOy0AiOIkTx-47" value="" style="endArrow=none;dashed=1;html=1;rounded=0;" parent="1" edge="1">
          <mxGeometry width="50" height="50" relative="1" as="geometry">
            <mxPoint x="1310" y="-320" as="sourcePoint" />
            <mxPoint x="1230" y="-320" as="targetPoint" />
          </mxGeometry>
        </mxCell>
        <mxCell id="qEqo5hfFAQOy0AiOIkTx-48" value="raktar_id" style="rhombus;whiteSpace=wrap;html=1;" parent="1" vertex="1">
          <mxGeometry x="1340" y="-370" width="120" height="80" as="geometry" />
        </mxCell>
        <mxCell id="qEqo5hfFAQOy0AiOIkTx-49" value="" style="endArrow=none;dashed=1;html=1;rounded=0;" parent="1" edge="1">
          <mxGeometry width="50" height="50" relative="1" as="geometry">
            <mxPoint x="1420" y="-320" as="sourcePoint" />
            <mxPoint x="1380" y="-320" as="targetPoint" />
          </mxGeometry>
        </mxCell>
        <mxCell id="qEqo5hfFAQOy0AiOIkTx-50" value="" style="rounded=0;whiteSpace=wrap;html=1;" parent="1" vertex="1">
          <mxGeometry x="1500" y="-260" width="40" height="80" as="geometry" />
        </mxCell>
        <mxCell id="qEqo5hfFAQOy0AiOIkTx-51" value="" style="endArrow=none;html=1;rounded=0;exitX=0.5;exitY=0;exitDx=0;exitDy=0;entryX=0.5;entryY=1;entryDx=0;entryDy=0;" parent="1" source="qEqo5hfFAQOy0AiOIkTx-50" edge="1">
          <mxGeometry width="50" height="50" relative="1" as="geometry">
            <mxPoint x="1625" y="-330" as="sourcePoint" />
            <mxPoint x="1520" y="-310" as="targetPoint" />
          </mxGeometry>
        </mxCell>
        <mxCell id="qEqo5hfFAQOy0AiOIkTx-52" value="" style="rounded=0;whiteSpace=wrap;html=1;" parent="1" vertex="1">
          <mxGeometry x="1610" y="-260" width="40" height="80" as="geometry" />
        </mxCell>
        <mxCell id="qEqo5hfFAQOy0AiOIkTx-53" value="" style="endArrow=none;html=1;rounded=0;exitX=0.5;exitY=0;exitDx=0;exitDy=0;entryX=0.5;entryY=1;entryDx=0;entryDy=0;" parent="1" source="qEqo5hfFAQOy0AiOIkTx-52" edge="1">
          <mxGeometry width="50" height="50" relative="1" as="geometry">
            <mxPoint x="1735" y="-330" as="sourcePoint" />
            <mxPoint x="1630" y="-310" as="targetPoint" />
          </mxGeometry>
        </mxCell>
        <mxCell id="qEqo5hfFAQOy0AiOIkTx-54" value="" style="rounded=0;whiteSpace=wrap;html=1;" parent="1" vertex="1">
          <mxGeometry x="1720" y="-260" width="40" height="80" as="geometry" />
        </mxCell>
        <mxCell id="qEqo5hfFAQOy0AiOIkTx-55" value="" style="endArrow=none;html=1;rounded=0;exitX=0.5;exitY=0;exitDx=0;exitDy=0;entryX=0.5;entryY=1;entryDx=0;entryDy=0;" parent="1" source="qEqo5hfFAQOy0AiOIkTx-54" edge="1">
          <mxGeometry width="50" height="50" relative="1" as="geometry">
            <mxPoint x="1845" y="-330" as="sourcePoint" />
            <mxPoint x="1740" y="-310" as="targetPoint" />
          </mxGeometry>
        </mxCell>
        <mxCell id="qEqo5hfFAQOy0AiOIkTx-56" value="" style="endArrow=block;dashed=1;endFill=0;endSize=12;html=1;rounded=0;exitX=0.5;exitY=1;exitDx=0;exitDy=0;entryX=0.697;entryY=0.813;entryDx=0;entryDy=0;entryPerimeter=0;" parent="1" source="qEqo5hfFAQOy0AiOIkTx-46" target="qEqo5hfFAQOy0AiOIkTx-2" edge="1">
          <mxGeometry width="160" relative="1" as="geometry">
            <mxPoint x="-300" y="-280" as="sourcePoint" />
            <mxPoint x="-126" y="-286" as="targetPoint" />
            <Array as="points">
              <mxPoint x="1270" y="-160" />
              <mxPoint x="-120" y="-160" />
            </Array>
          </mxGeometry>
        </mxCell>
        <mxCell id="qEqo5hfFAQOy0AiOIkTx-75" style="edgeStyle=orthogonalEdgeStyle;rounded=0;orthogonalLoop=1;jettySize=auto;html=1;exitX=0;exitY=1;exitDx=0;exitDy=0;entryX=0.5;entryY=0;entryDx=0;entryDy=0;" parent="1" source="qEqo5hfFAQOy0AiOIkTx-64" target="Ih1S8qMaLeZmfwq9otU4-19" edge="1">
          <mxGeometry relative="1" as="geometry" />
        </mxCell>
        <mxCell id="qEqo5hfFAQOy0AiOIkTx-77" style="edgeStyle=orthogonalEdgeStyle;rounded=0;orthogonalLoop=1;jettySize=auto;html=1;exitX=1;exitY=0.5;exitDx=0;exitDy=0;" parent="1" source="qEqo5hfFAQOy0AiOIkTx-64" target="Ih1S8qMaLeZmfwq9otU4-11" edge="1">
          <mxGeometry relative="1" as="geometry" />
        </mxCell>
        <mxCell id="qEqo5hfFAQOy0AiOIkTx-80" style="edgeStyle=orthogonalEdgeStyle;rounded=0;orthogonalLoop=1;jettySize=auto;html=1;exitX=0;exitY=0.5;exitDx=0;exitDy=0;entryX=0.5;entryY=0;entryDx=0;entryDy=0;" parent="1" source="qEqo5hfFAQOy0AiOIkTx-64" target="qEqo5hfFAQOy0AiOIkTx-78" edge="1">
          <mxGeometry relative="1" as="geometry" />
        </mxCell>
        <mxCell id="qEqo5hfFAQOy0AiOIkTx-64" value="Raktarak" style="ellipse;shape=doubleEllipse;margin=3;whiteSpace=wrap;html=1;align=center;" parent="1" vertex="1">
          <mxGeometry x="2078" y="-450" width="100" height="40" as="geometry" />
        </mxCell>
        <mxCell id="qEqo5hfFAQOy0AiOIkTx-67" value="" style="rounded=0;whiteSpace=wrap;html=1;" parent="1" vertex="1">
          <mxGeometry x="1980" y="-150" width="40" height="80" as="geometry" />
        </mxCell>
        <mxCell id="qEqo5hfFAQOy0AiOIkTx-68" value="" style="endArrow=none;html=1;rounded=0;exitX=0.5;exitY=0;exitDx=0;exitDy=0;entryX=0.5;entryY=1;entryDx=0;entryDy=0;" parent="1" source="qEqo5hfFAQOy0AiOIkTx-67" edge="1">
          <mxGeometry width="50" height="50" relative="1" as="geometry">
            <mxPoint x="2105" y="-220" as="sourcePoint" />
            <mxPoint x="2000" y="-200" as="targetPoint" />
          </mxGeometry>
        </mxCell>
        <mxCell id="qEqo5hfFAQOy0AiOIkTx-69" value="" style="rounded=0;whiteSpace=wrap;html=1;" parent="1" vertex="1">
          <mxGeometry x="2098" y="-150" width="40" height="80" as="geometry" />
        </mxCell>
        <mxCell id="qEqo5hfFAQOy0AiOIkTx-70" value="" style="endArrow=none;html=1;rounded=0;exitX=0.5;exitY=0;exitDx=0;exitDy=0;entryX=0.5;entryY=1;entryDx=0;entryDy=0;" parent="1" source="qEqo5hfFAQOy0AiOIkTx-69" edge="1">
          <mxGeometry width="50" height="50" relative="1" as="geometry">
            <mxPoint x="2223" y="-220" as="sourcePoint" />
            <mxPoint x="2118" y="-200" as="targetPoint" />
          </mxGeometry>
        </mxCell>
        <mxCell id="qEqo5hfFAQOy0AiOIkTx-73" value="" style="rounded=0;whiteSpace=wrap;html=1;" parent="1" vertex="1">
          <mxGeometry x="2320" y="-260" width="40" height="80" as="geometry" />
        </mxCell>
        <mxCell id="qEqo5hfFAQOy0AiOIkTx-74" value="" style="endArrow=none;html=1;rounded=0;exitX=0.5;exitY=0;exitDx=0;exitDy=0;entryX=0.5;entryY=1;entryDx=0;entryDy=0;" parent="1" source="qEqo5hfFAQOy0AiOIkTx-73" edge="1">
          <mxGeometry width="50" height="50" relative="1" as="geometry">
            <mxPoint x="2445" y="-330" as="sourcePoint" />
            <mxPoint x="2340" y="-310" as="targetPoint" />
          </mxGeometry>
        </mxCell>
        <mxCell id="qEqo5hfFAQOy0AiOIkTx-78" value="tulajdonos_id" style="rhombus;whiteSpace=wrap;html=1;" parent="1" vertex="1">
          <mxGeometry x="1850" y="-370" width="120" height="80" as="geometry" />
        </mxCell>
        <mxCell id="qEqo5hfFAQOy0AiOIkTx-79" value="" style="endArrow=none;dashed=1;html=1;rounded=0;" parent="1" edge="1">
          <mxGeometry width="50" height="50" relative="1" as="geometry">
            <mxPoint x="1950" y="-320" as="sourcePoint" />
            <mxPoint x="1870" y="-320" as="targetPoint" />
          </mxGeometry>
        </mxCell>
        <mxCell id="qEqo5hfFAQOy0AiOIkTx-81" value="" style="endArrow=block;dashed=1;endFill=0;endSize=12;html=1;rounded=0;exitX=0.5;exitY=1;exitDx=0;exitDy=0;" parent="1" source="qEqo5hfFAQOy0AiOIkTx-48" edge="1">
          <mxGeometry width="160" relative="1" as="geometry">
            <mxPoint x="1410" y="-350" as="sourcePoint" />
            <mxPoint x="2210" y="-290" as="targetPoint" />
            <Array as="points">
              <mxPoint x="1400" y="-50" />
              <mxPoint x="2210" y="-50" />
            </Array>
          </mxGeometry>
        </mxCell>
        <mxCell id="qEqo5hfFAQOy0AiOIkTx-82" value="raktar_id" style="shape=rhombus;perimeter=rhombusPerimeter;whiteSpace=wrap;html=1;align=center;" parent="1" vertex="1">
          <mxGeometry x="2150" y="-370" width="120" height="80" as="geometry" />
        </mxCell>
        <mxCell id="qEqo5hfFAQOy0AiOIkTx-83" value="" style="line;strokeWidth=1;rotatable=0;dashed=0;labelPosition=right;align=left;verticalAlign=middle;spacingTop=0;spacingLeft=6;points=[];portConstraint=eastwest;" parent="1" vertex="1">
          <mxGeometry x="2170" y="-325" width="80" height="10" as="geometry" />
        </mxCell>
        <mxCell id="qEqo5hfFAQOy0AiOIkTx-84" value="" style="endArrow=block;dashed=1;endFill=0;endSize=12;html=1;rounded=0;exitX=0.5;exitY=1;exitDx=0;exitDy=0;entryX=0.5;entryY=1;entryDx=0;entryDy=0;" parent="1" source="qEqo5hfFAQOy0AiOIkTx-78" target="qEqo5hfFAQOy0AiOIkTx-2" edge="1">
          <mxGeometry width="160" relative="1" as="geometry">
            <mxPoint x="1260" y="-270" as="sourcePoint" />
            <mxPoint x="-130" y="-290" as="targetPoint" />
            <Array as="points">
              <mxPoint x="1910" y="-100" />
              <mxPoint x="-135" y="-100" />
            </Array>
          </mxGeometry>
        </mxCell>
        <mxCell id="qEqo5hfFAQOy0AiOIkTx-86" style="edgeStyle=orthogonalEdgeStyle;rounded=0;orthogonalLoop=1;jettySize=auto;html=1;exitX=0;exitY=0.5;exitDx=0;exitDy=0;entryX=0.5;entryY=0;entryDx=0;entryDy=0;" parent="1" source="qEqo5hfFAQOy0AiOIkTx-85" target="Ih1S8qMaLeZmfwq9otU4-33" edge="1">
          <mxGeometry relative="1" as="geometry" />
        </mxCell>
        <mxCell id="qEqo5hfFAQOy0AiOIkTx-87" style="edgeStyle=orthogonalEdgeStyle;rounded=0;orthogonalLoop=1;jettySize=auto;html=1;exitX=0;exitY=1;exitDx=0;exitDy=0;entryX=0.5;entryY=0;entryDx=0;entryDy=0;" parent="1" source="qEqo5hfFAQOy0AiOIkTx-85" target="qEqo5hfFAQOy0AiOIkTx-1" edge="1">
          <mxGeometry relative="1" as="geometry" />
        </mxCell>
        <mxCell id="qEqo5hfFAQOy0AiOIkTx-88" style="edgeStyle=orthogonalEdgeStyle;rounded=0;orthogonalLoop=1;jettySize=auto;html=1;exitX=0.5;exitY=1;exitDx=0;exitDy=0;entryX=0.5;entryY=0;entryDx=0;entryDy=0;" parent="1" source="qEqo5hfFAQOy0AiOIkTx-85" target="qEqo5hfFAQOy0AiOIkTx-26" edge="1">
          <mxGeometry relative="1" as="geometry" />
        </mxCell>
        <mxCell id="qEqo5hfFAQOy0AiOIkTx-89" style="edgeStyle=orthogonalEdgeStyle;rounded=0;orthogonalLoop=1;jettySize=auto;html=1;exitX=1;exitY=1;exitDx=0;exitDy=0;entryX=0.5;entryY=0;entryDx=0;entryDy=0;" parent="1" source="qEqo5hfFAQOy0AiOIkTx-85" target="qEqo5hfFAQOy0AiOIkTx-43" edge="1">
          <mxGeometry relative="1" as="geometry" />
        </mxCell>
        <mxCell id="qEqo5hfFAQOy0AiOIkTx-90" style="edgeStyle=orthogonalEdgeStyle;rounded=0;orthogonalLoop=1;jettySize=auto;html=1;exitX=1;exitY=0.5;exitDx=0;exitDy=0;entryX=0.5;entryY=0;entryDx=0;entryDy=0;" parent="1" source="qEqo5hfFAQOy0AiOIkTx-85" target="qEqo5hfFAQOy0AiOIkTx-64" edge="1">
          <mxGeometry relative="1" as="geometry" />
        </mxCell>
        <mxCell id="qEqo5hfFAQOy0AiOIkTx-85" value="RaktarAlkalmazas" style="ellipse;shape=doubleEllipse;margin=3;whiteSpace=wrap;html=1;align=center;" parent="1" vertex="1">
          <mxGeometry x="610" y="-770" width="240" height="90" as="geometry" />
        </mxCell>
      </root>
    </mxGraphModel>
  </diagram>
</mxfile>
